<?xml version="1.0" standalone="no"?><!DOCTYPE svg PUBLIC "-//W3C//DTD SVG 1.1//EN" "http://www.w3.org/Graphics/SVG/1.1/DTD/svg11.dtd"><svg class="icon" width="200px" height="200.00px" viewBox="0 0 1024 1024" version="1.1" xmlns="http://www.w3.org/2000/svg"><path d="M253.4 672c-9.4 0-17-7.6-17-17V464.9c0-19.5 9.5-37.8 25.5-49.1l205-144.4c7.7-5.4 18.3-3.6 23.7 4.1 5.4 7.7 3.6 18.3-4.1 23.7l-205 144.4c-6.9 4.9-11.1 12.8-11.1 21.3V655c0 9.4-7.6 17-17 17z" fill="#2c2c2c" /><path d="M515 169.2c8.4 0 16.5 2.6 23.4 7.4L848 394.7c10.7 7.5 17 19.7 17 32.7v407H677.9c-3.8 0-6.9-3-6.9-6.7v-49.2c0-50-40.7-90.6-90.8-90.6H449.9c-50.1 0-90.8 40.7-90.8 90.6v49.2c0 3.7-3.1 6.7-6.9 6.7H165v-407c0-13 6.4-25.2 17-32.7l309.6-218.1c6.9-4.8 15-7.4 23.4-7.4m0-50c-18.3 0-36.6 5.5-52.2 16.5L153.3 353.8c-24 16.9-38.2 44.3-38.2 73.6v416.4c0 22.4 18.3 40.6 40.8 40.6h196.4c31.4 0 56.9-25.4 56.9-56.7v-49.2c0-22.4 18.3-40.6 40.8-40.6h130.3c22.5 0 40.8 18.2 40.8 40.6v49.2c0 31.3 25.5 56.7 56.9 56.7h196.4c22.5 0 40.8-18.2 40.8-40.6V427.4c0-29.3-14.2-56.7-38.2-73.6L567.3 135.7c-15.7-11-34-16.5-52.3-16.5z" fill="#e0620d" /></svg>