<?xml version="1.0" standalone="no"?><!DOCTYPE svg PUBLIC "-//W3C//DTD SVG 1.1//EN" "http://www.w3.org/Graphics/SVG/1.1/DTD/svg11.dtd"><svg class="icon" width="200px" height="200.00px" viewBox="0 0 1024 1024" version="1.1" xmlns="http://www.w3.org/2000/svg"><path d="M512 62.515822c60.702524 0 119.562073 11.877515 174.943404 35.302018 53.517891 22.636556 101.592816 55.05285 142.889361 96.349395 41.296545 41.296545 73.712839 89.37147 96.349395 142.889361 23.424502 55.381331 35.302017 114.240881 35.302018 174.943404s-11.877515 119.562073-35.302018 174.943404c-22.636556 53.517891-55.05285 101.592816-96.349395 142.889361-41.296545 41.296545-89.37147 73.712839-142.889361 96.349395-55.381331 23.424502-114.240881 35.302017-174.943404 35.302018s-119.562073-11.877515-174.943404-35.302018c-53.517891-22.636556-101.592816-55.05285-142.889361-96.349395-41.296545-41.296545-73.712839-89.37147-96.349395-142.889361-23.424502-55.381331-35.302017-114.240881-35.302018-174.943404s11.877515-119.562073 35.302018-174.943404c22.635533-53.517891 55.05285-101.592816 96.349395-142.889361 41.296545-41.296545 89.37147-73.712839 142.889361-96.349395 55.381331-23.424502 114.240881-35.302017 174.943404-35.302018m0-51.16531c-276.500405 0-500.649488 224.14806-500.649488 500.649488s224.14806 500.649488 500.649488 500.649488 500.649488-224.14806 500.649488-500.649488S788.500405 11.350512 512 11.350512z" fill="#e0620d" /><path d="M510.742357 508.724397c-104.664781 0-189.815113-85.150332-189.815114-189.815113 0-104.663758 85.150332-189.815113 189.815114-189.815114 104.663758 0 189.815113 85.150332 189.815113 189.815114 0 104.664781-85.150332 189.815113-189.815113 189.815113z m0-328.463894c-76.451206 0-138.649803 62.197574-138.649804 138.649804s62.198597 138.649803 138.649804 138.649803c76.452229 0 138.649803-62.198597 138.649803-138.649803s-62.197574-138.649803-138.649803-138.649804z" fill="#e0620d" /><path d="M172.558078 808.269657h-51.16531c0-87.242993 42.23901-175.399799 115.88738-241.86456 36.33965-32.79594 78.178547-58.661028 124.355239-76.876901 48.650023-19.192108 99.850126-28.92375 152.177912-28.92375 52.326762 0 103.465466 9.492188 151.996786 28.213575 46.237067 17.836227 88.081081 43.202964 124.371612 75.395154 73.751724 65.422012 116.050086 152.885016 116.050086 239.964281h-51.16531c0-72.457242-36.024471-145.969513-98.838076-201.688535-31.702026-28.121478-68.320015-50.305733-108.833731-65.934689-42.632983-16.446577-87.576591-24.785499-133.581367-24.785499-45.873794 0-90.756003 8.53028-133.401266 25.353434-40.455387 15.960507-77.078493 38.591947-108.852151 67.26601-62.916958 56.781214-99.001805 131.092687-99.001804 203.88148z" fill="#e0620d" /></svg>